<?xml version="1.0" standalone="no"?>
<!DOCTYPE svg PUBLIC "-//W3C//DTD SVG 20010904//EN"
 "http://www.w3.org/TR/2001/REC-SVG-20010904/DTD/svg10.dtd">
<svg version="1.0" xmlns="http://www.w3.org/2000/svg"
 width="260.000000pt" height="260.000000pt" viewBox="0 0 260.000000 260.000000"
 preserveAspectRatio="xMidYMid meet">
<metadata>
Created by potrace 1.14, written by Peter Selinger 2001-2017
</metadata>
<g transform="translate(0.000000,260.000000) scale(0.100000,-0.100000)"
fill="#000000" stroke="none">
<path d="M1952 2589 c-13 -5 -220 -8 -460 -7 -478 3 -439 7 -494 -50 -7 -8
-25 -27 -40 -42 -16 -15 -28 -34 -28 -41 0 -7 -11 -31 -24 -53 -13 -23 -27
-56 -31 -73 -3 -18 -24 -54 -46 -80 -21 -26 -39 -51 -39 -56 0 -11 -71 3 -94
19 -17 12 -23 11 -38 -3 -16 -14 -24 -15 -53 -4 -19 7 -40 9 -46 5 -6 -3 -130
-6 -275 -5 l-264 2 0 -133 c-1 -209 -8 -540 -15 -698 l-7 -146 41 -37 c23 -20
50 -37 61 -37 12 0 42 -11 68 -25 26 -14 55 -25 65 -25 10 0 29 -12 43 -27 30
-33 39 -24 49 50 6 42 4 52 -16 73 l-22 24 21 23 c12 13 22 26 22 29 0 3 -25
25 -55 49 -30 24 -55 52 -55 61 0 20 70 43 109 35 14 -3 37 0 50 7 17 10 33
11 56 3 50 -15 85 -2 85 31 1 54 30 188 50 227 11 21 20 46 20 55 0 9 11 31
25 50 14 19 25 41 25 50 0 9 11 26 24 39 12 12 28 38 34 59 7 20 29 57 51 82
37 43 41 45 90 44 40 0 57 -6 79 -26 15 -13 42 -31 60 -38 49 -19 104 -109
100 -163 -3 -39 -6 -42 -41 -52 -22 -6 -46 -20 -55 -32 -10 -11 -27 -26 -39
-32 -13 -7 -23 -18 -23 -26 0 -8 -9 -19 -20 -25 -11 -6 -18 -15 -15 -20 3 -5
31 4 62 20 31 17 62 30 69 30 7 0 31 9 52 20 63 33 92 21 154 -66 46 -63 57
-73 83 -73 28 0 99 -10 190 -26 58 -10 123 -41 129 -62 11 -39 4 -281 -9 -307
-13 -25 -13 -26 28 -38 23 -6 47 -15 54 -20 8 -6 17 2 28 26 10 20 21 36 25
36 19 0 19 34 0 47 -24 17 -26 42 -5 69 21 28 18 74 -6 101 -18 18 -20 25 -9
38 7 8 21 15 33 15 29 0 85 -38 93 -63 3 -12 16 -30 27 -39 18 -14 22 -29 25
-95 4 -102 9 -116 29 -79 28 53 33 84 18 113 -14 27 -11 67 7 90 5 6 32 17 61
23 29 7 62 18 74 26 28 17 52 18 72 1 9 -7 41 -23 72 -36 l57 -22 36 37 c20
20 36 40 36 44 0 4 11 12 25 18 14 6 25 17 25 24 0 7 11 24 25 38 14 14 53 58
86 98 l61 72 -2 213 c-3 386 -7 562 -15 593 l-7 30 -66 -8 c-95 -11 -120 -17
-125 -32 -3 -7 -25 -16 -49 -19 -23 -3 -74 -10 -111 -16 -38 -5 -76 -16 -85
-24 -9 -8 -35 -18 -57 -21 -78 -14 -79 -14 -39 -51 49 -47 45 -80 -15 -112
-68 -36 -151 -15 -151 38 0 13 -12 25 -35 35 -42 17 -37 34 10 34 48 0 65 9
65 36 0 36 39 127 62 145 28 22 13 50 -20 38z m536 -133 c6 -30 -17 -35 -58
-12 -47 25 -42 38 13 34 32 -2 43 -8 45 -22z m-209 -32 c44 -9 39 -24 -8 -24
-38 0 -57 10 -44 24 8 8 13 8 52 0z m-344 -273 c3 -5 1 -12 -5 -16 -5 -3 -10
1 -10 9 0 18 6 21 15 7z m-69 -49 c11 -7 44 -65 44 -77 0 -14 -151 -76 -170
-70 -23 7 -24 11 -9 53 12 36 -2 72 -29 73 -9 0 3 6 28 13 51 15 120 19 136 8z
m200 -7 c16 -13 17 -16 4 -25 -8 -5 -22 -10 -31 -10 -23 0 -53 25 -45 38 10
17 48 15 72 -3z m84 -71 c0 -16 -9 -18 -30 -4 -13 9 -13 11 0 19 17 12 30 5
30 -15z m-443 -106 c-3 -8 -6 -5 -6 6 -1 11 2 17 5 13 3 -3 4 -12 1 -19z
m-107 -133 c0 -37 -1 -38 -23 -29 -12 4 -13 11 -4 35 15 39 27 37 27 -6z
m-152 -77 c-3 -7 -10 -13 -16 -12 -7 1 -22 2 -34 3 -19 1 -20 3 -8 11 22 14
62 12 58 -2z"/>
<path d="M1043 1516 c-46 -10 -65 -21 -106 -64 -13 -15 -71 -79 -91 -102 -7
-8 -19 -33 -26 -55 -7 -22 -19 -45 -26 -51 -25 -20 -36 -76 -19 -93 21 -21 45
3 45 45 0 19 4 34 10 34 5 0 15 18 21 40 7 23 20 42 31 45 10 4 18 10 18 15 0
14 73 90 86 90 6 0 22 8 35 19 37 29 85 36 115 16 67 -44 83 -87 39 -107 -30
-13 -32 -34 -6 -62 42 -47 30 -106 -22 -106 -12 0 -28 -4 -36 -9 -21 -13 52
-42 88 -35 25 5 29 3 34 -25 5 -25 12 -31 31 -31 14 0 37 5 51 12 23 10 25 17
25 70 0 33 -7 72 -15 88 -8 16 -20 64 -26 107 -9 66 -15 83 -42 111 -19 19
-52 39 -81 47 -55 17 -60 17 -133 1z"/>
<path d="M2235 1331 c-3 -5 -1 -12 5 -16 5 -3 10 1 10 9 0 18 -6 21 -15 7z"/>
<path d="M2395 1160 c3 -5 12 -10 20 -10 8 0 17 5 20 10 4 6 -5 10 -20 10 -15
0 -24 -4 -20 -10z"/>
<path d="M1828 849 c-9 -5 -54 -8 -99 -6 -71 3 -82 1 -86 -13 -3 -10 -16 -23
-29 -29 -32 -14 -34 -66 -3 -76 11 -4 25 -17 31 -30 7 -15 22 -25 43 -29 19
-4 43 -15 55 -24 21 -17 24 -17 75 8 45 21 57 33 74 72 12 26 26 50 31 53 12
7 -48 85 -64 85 -6 0 -19 -5 -28 -11z"/>
<path d="M133 805 c0 -22 2 -30 4 -17 2 12 2 30 0 40 -3 9 -5 -1 -4 -23z"/>
<path d="M2292 791 c2 -7 7 -12 11 -12 12 1 9 15 -3 20 -7 2 -11 -2 -8 -8z"/>
<path d="M2240 729 c0 -5 5 -7 10 -4 6 3 10 8 10 11 0 2 -4 4 -10 4 -5 0 -10
-5 -10 -11z"/>
<path d="M378 662 c-22 -3 -27 -9 -33 -42 -8 -46 4 -75 16 -42 5 12 22 27 38
34 26 12 28 15 18 33 -8 14 -20 19 -39 17z"/>
<path d="M2067 636 c-16 -13 -16 -14 3 -19 22 -6 38 10 24 23 -5 5 -17 3 -27
-4z"/>
<path d="M2020 574 c0 -8 5 -12 10 -9 6 3 10 10 10 16 0 5 -4 9 -10 9 -5 0
-10 -7 -10 -16z"/>
<path d="M448 513 c6 -2 18 -2 25 0 6 3 1 5 -13 5 -14 0 -19 -2 -12 -5z"/>
<path d="M1390 491 c-40 -33 -39 -34 57 -50 35 -5 77 -17 95 -25 18 -9 66 -20
107 -26 82 -11 91 -7 91 41 0 42 -24 54 -106 52 -59 -2 -77 2 -97 18 -39 30
-105 26 -147 -10z"/>
<path d="M831 488 c-6 -17 -2 -27 21 -46 15 -13 28 -32 28 -42 0 -27 10 -30
56 -18 26 7 48 22 62 41 23 33 21 47 -7 47 -10 0 -47 9 -81 20 -76 24 -69 24
-79 -2z"/>
<path d="M1020 403 c0 -9 -8 -25 -17 -36 -18 -19 -17 -20 12 -13 17 4 47 10
67 13 34 4 39 2 48 -21 5 -14 15 -26 21 -26 6 0 22 -9 36 -20 22 -17 40 -20
117 -19 50 0 100 4 110 8 16 6 14 9 -15 21 -19 7 -43 21 -54 30 -11 10 -46 21
-79 25 -32 4 -79 18 -104 31 -56 30 -142 34 -142 7z"/>
<path d="M1754 373 c-6 -5 -14 -18 -18 -30 -4 -13 -13 -23 -19 -23 -7 0 -21
-8 -32 -16 -19 -15 -15 -16 57 -11 85 6 101 0 118 -47 8 -21 7 -49 -2 -103 -9
-55 -9 -76 -1 -84 9 -9 14 -5 19 17 4 16 27 48 51 72 l44 43 -35 14 c-20 8
-40 15 -46 15 -5 0 -10 18 -10 40 0 34 -4 42 -24 50 -17 6 -26 18 -28 37 -2
23 -8 28 -33 31 -16 1 -35 -1 -41 -5z"/>
<path d="M367 243 c-4 -3 -7 -20 -7 -37 0 -23 -3 -27 -12 -18 -19 19 -58 15
-58 -5 1 -25 38 -49 90 -58 25 -4 51 -12 58 -18 9 -7 20 -6 38 2 43 19 96 14
128 -14 16 -14 34 -25 39 -25 6 0 18 -7 27 -15 21 -19 57 -21 93 -7 30 13 72
2 79 -20 6 -16 215 -25 230 -10 18 18 -16 57 -85 101 -74 48 -84 56 -89 73 -4
10 -10 10 -32 0 -38 -17 -77 -15 -92 5 -13 19 -67 22 -152 8 -54 -9 -89 0 -97
25 -6 18 -15 20 -79 20 -40 0 -76 -3 -79 -7z"/>
<path d="M1490 232 c0 -10 -5 -23 -11 -29 -7 -7 -7 -13 0 -17 5 -4 15 3 21 14
6 11 18 20 28 21 9 0 35 6 57 14 l40 13 -67 1 c-59 1 -68 -1 -68 -17z"/>
<path d="M1370 156 c-5 -15 -10 -31 -10 -35 0 -5 -7 -14 -15 -21 -13 -11 -10
-17 21 -46 35 -33 38 -34 127 -36 51 -1 110 0 132 1 40 3 58 11 40 17 -5 2
-25 13 -43 24 -32 20 -32 20 -17 50 17 33 17 32 -38 44 -26 6 -30 3 -53 -49
-26 -56 -26 -56 -67 -53 l-42 3 -3 55 c-4 65 -17 85 -32 46z"/>
<path d="M2273 133 c9 -2 25 -2 35 0 9 3 1 5 -18 5 -19 0 -27 -2 -17 -5z"/>
</g>
</svg>
